<svg width="66" height="66" viewBox="0 0 66 66" fill="none" xmlns="http://www.w3.org/2000/svg">
<path d="M33 0C14.7746 0 0 14.7746 0 33C0 51.2254 14.7746 66 33 66C51.2254 66 66 51.2254 66 33C66 14.7746 51.2254 0 33 0ZM16.3671 13.942L22.2403 15.787C23.0179 16.0423 23.5358 16.7644 23.6261 17.503L23.9564 20.7377L50.5514 23.7065C51.6933 23.9278 52.4958 24.9588 52.3359 26.0188L50.6843 35.3241C50.4741 36.2975 49.668 36.9647 48.7709 36.9757H25.1448L24.6815 39.6143H47.1193C48.2925 39.6556 49.1519 40.549 49.1657 41.5922C49.117 42.7823 48.1578 43.5613 47.1193 43.5741H22.3048C21.0532 43.4706 20.1344 42.4788 20.3269 41.2659L21.3823 35.4571L19.7307 19.2191L15.1787 17.769C14.6507 17.593 14.2543 17.2619 13.9903 16.7779C13.4908 15.7312 13.9574 14.5722 14.8484 14.0709C15.3569 13.8065 15.8536 13.7736 16.3671 13.942ZM25.31 44.7143C27.0186 44.7143 28.4037 46.0995 28.4037 47.8081C28.4037 49.5167 27.0186 50.9018 25.31 50.9018C23.6014 50.9018 22.2162 49.5167 22.2162 47.8081C22.2162 46.0995 23.6013 44.7143 25.31 44.7143ZM43.4696 44.7143C45.1782 44.7143 46.5633 46.0995 46.5633 47.8081C46.5633 49.5167 45.1782 50.9018 43.4696 50.9018C41.761 50.9018 40.3758 49.5167 40.3758 47.8081C40.3758 46.0995 41.761 44.7143 43.4696 44.7143Z" fill="#F8DDC1"/>
</svg>
