<svg width="69" height="69" viewBox="0 0 69 69" fill="none" xmlns="http://www.w3.org/2000/svg">
<path d="M68.1987 34.0994C68.1987 52.9319 52.9319 68.1987 34.0994 68.1987C15.2668 68.1987 0 52.9319 0 34.0994C0 15.2668 15.2668 0 34.0994 0C52.9319 0 68.1987 15.2668 68.1987 34.0994Z" fill="#F8DDC1"/>
<path d="M34.0992 13.6399C30.6503 13.6399 27.6106 15.9197 26.6363 19.2322C25.6036 18.7645 24.5124 18.5112 23.3823 18.5112C21.3151 18.5112 19.3327 19.3324 17.871 20.7941C16.4093 22.2558 15.5881 24.2382 15.5881 26.3054C15.5928 28.0315 16.1688 29.7074 17.2263 31.0716C18.2838 32.4358 19.7633 33.4115 21.4337 33.8462V47.7393H46.7647V33.8462C50.1941 32.9499 52.6103 29.8517 52.6103 26.3054C52.6103 24.2382 51.7891 22.2558 50.3274 20.7941C48.8658 19.3324 46.8833 18.5112 44.8162 18.5112C43.686 18.5112 42.5948 18.7645 41.5621 19.2322C40.5878 15.9197 37.5481 13.6399 34.0992 13.6399ZM33.1249 31.1767H35.0735V44.8164H33.1249V31.1767ZM27.2793 35.0738H29.2279V44.8164H27.2793V35.0738ZM38.9705 35.0738H40.9191V44.8164H38.9705V35.0738ZM21.4337 49.6878V51.6363C21.4337 52.1531 21.639 52.6487 22.0045 53.0141C22.3699 53.3796 22.8655 53.5849 23.3823 53.5849H44.8162C45.3329 53.5849 45.8286 53.3796 46.194 53.0141C46.5594 52.6487 46.7647 52.1531 46.7647 51.6363V49.6878H21.4337Z" fill="white"/>
</svg>
