<svg width="69" height="69" viewBox="0 0 69 69" fill="none" xmlns="http://www.w3.org/2000/svg">
<path d="M68.1987 34.0994C68.1987 52.9319 52.9319 68.1987 34.0994 68.1987C15.2668 68.1987 0 52.9319 0 34.0994C0 15.2668 15.2668 0 34.0994 0C52.9319 0 68.1987 15.2668 68.1987 34.0994Z" fill="#F8DDC1"/>
<path d="M21.1244 35.1157L24.6292 36.7286C24.9661 36.8837 25.3296 36.9673 25.6982 36.9745C26.0669 36.9817 26.4331 36.9124 26.7755 36.7706L27.8779 36.3134C28.2632 36.1538 28.6088 35.9063 28.889 35.5893C29.1692 35.2723 29.3767 34.894 29.4962 34.4826L30.2916 31.7453C30.3639 31.4452 30.4982 31.165 30.685 30.9237C30.8719 30.6825 31.107 30.4859 31.3742 30.3476L33.2823 29.3581V33.8529C33.2824 34.6491 33.0684 35.4296 32.6642 36.1069C32.26 36.7843 31.6816 37.3317 30.9937 37.6878L26.0578 40.2465C24.9119 40.8403 23.9484 41.7527 23.2751 42.8815C22.6018 44.0102 22.2454 45.3107 22.2458 46.6374V47.9341H49.8379V30.787C49.8379 21.3204 42.4262 13.6399 33.2823 13.6399H20.5205C20.246 13.6399 19.9827 13.7528 19.7885 13.9538C19.5944 14.1548 19.4854 14.4274 19.4854 14.7116C19.4852 14.9466 19.5381 15.1784 19.6398 15.3885L20.8656 17.9267L20.0892 18.7304C19.8971 18.93 19.7449 19.1668 19.6413 19.4273C19.5377 19.6878 19.4847 19.9669 19.4854 20.2487V32.5026C19.485 33.0556 19.6397 33.5969 19.9306 34.0608C20.2216 34.5246 20.6362 34.8911 21.1244 35.1157ZM23.971 22.2134C24.3123 22.2134 24.6458 22.3182 24.9296 22.5145C25.2133 22.7107 25.4344 22.9897 25.565 23.3161C25.6956 23.6424 25.7297 24.0016 25.6632 24.3481C25.5966 24.6945 25.4323 25.0128 25.191 25.2626C24.9497 25.5124 24.6423 25.6825 24.3076 25.7514C23.973 25.8204 23.6261 25.785 23.3108 25.6498C22.9956 25.5146 22.7261 25.2857 22.5365 24.9919C22.347 24.6982 22.2458 24.3529 22.2458 23.9996C22.2458 23.5259 22.4275 23.0716 22.7511 22.7366C23.0746 22.4016 23.5135 22.2134 23.971 22.2134ZM51.2302 50.792H20.8656C20.4995 50.792 20.1485 50.9425 19.8896 51.2105C19.6308 51.4784 19.4854 51.8419 19.4854 52.2209V55.0787C19.4854 55.4577 19.6308 55.8212 19.8896 56.0891C20.1485 56.3571 20.4995 56.5077 20.8656 56.5077H51.2302C51.5963 56.5077 51.9473 56.3571 52.2062 56.0891C52.465 55.8212 52.6104 55.4577 52.6104 55.0787V52.2209C52.6104 51.8419 52.465 51.4784 52.2062 51.2105C51.9473 50.9425 51.5963 50.792 51.2302 50.792Z" fill="white"/>
</svg>
