<svg width="66" height="66" viewBox="0 0 66 66" fill="none" xmlns="http://www.w3.org/2000/svg">
<path d="M65.1391 33.4304C65.1391 51.418 50.5572 65.9999 32.5695 65.9999C14.5819 65.9999 0 51.418 0 33.4304C0 15.4427 14.5819 0.86084 32.5695 0.86084C50.5572 0.86084 65.1391 15.4427 65.1391 33.4304Z" fill="#F8DDC1"/>
<path d="M51.3171 16.6259L38.4419 29.501C38.9714 30.9223 38.846 32.0231 38.0657 32.8034C37.2854 33.5837 36.1846 33.7091 34.7633 33.1796L34.7215 33.2214C35.5297 34.5312 35.9547 35.855 35.9965 37.1926C36.0383 38.5303 35.7945 39.7426 35.265 40.8294C34.7355 41.9163 33.983 42.9335 33.0076 43.881C30.5274 46.3613 28.7438 50.012 27.6569 54.8333C26.375 54.1923 24.9676 53.3562 23.4349 52.3251C23.1283 50.9317 23.1841 49.5522 23.6021 48.1867C24.0201 46.8211 24.7447 45.6646 25.7758 44.7171C24.4939 45.1351 23.3931 45.8318 22.4734 46.8072C21.5538 47.7826 20.9267 48.9112 20.5923 50.1932C19.2268 49.1063 18.0424 48.0752 17.0391 47.0998C16.9834 47.0441 16.9067 46.9605 16.8092 46.849C16.7117 46.7375 16.649 46.6539 16.6211 46.5982C17.5686 45.6507 18.2374 44.5777 18.6276 43.3794C17.6522 44.2433 16.5653 44.8703 15.367 45.2605C14.5031 44.2851 13.7367 43.3515 13.0679 42.4597C14.2941 42.0696 15.3809 41.4216 16.3285 40.5159C17.276 39.6102 17.9448 38.5303 18.335 37.2762C17.4432 38.2795 16.3563 38.9971 15.0744 39.4291C13.7925 39.861 12.4826 39.9655 11.145 39.7426C10.3925 38.5442 9.77942 37.4574 9.30566 36.482C14.1269 35.3673 17.7776 33.5837 20.2579 31.1313C21.2054 30.1559 22.2226 29.4035 23.3095 28.874C24.3963 28.3445 25.6086 28.1006 26.9463 28.1424C28.284 28.1842 29.6077 28.6092 30.9175 29.4174L30.9593 29.3756C30.4298 27.9543 30.5552 26.8535 31.3355 26.0732C32.1158 25.2929 33.2166 25.1675 34.6379 25.697L47.5131 12.8218C48.0426 12.2923 48.6766 12.0276 49.4151 12.0276C50.1536 12.0276 50.7876 12.2923 51.3171 12.8218C51.8466 13.3513 52.1113 13.9853 52.1113 14.7238C52.1113 15.4624 51.8466 16.0964 51.3171 16.6259Z" fill="white"/>
</svg>
