<svg width="66" height="66" viewBox="0 0 66 66" fill="none" xmlns="http://www.w3.org/2000/svg">
<circle cx="32.7233" cy="32.5695" r="32.5695" fill="#F8DDC1"/>
<path d="M23.9774 18.1458C25.8268 18.1458 27.3274 16.5828 27.3274 14.6562C27.3274 12.7297 25.8268 11.1666 23.9774 11.1666C22.1279 11.1666 20.6274 12.7297 20.6274 14.6562C20.6274 16.5828 22.1279 18.1458 23.9774 18.1458ZM30.5727 28.9854L28.9465 28.1275L28.2696 25.9901C27.2436 22.7477 24.3822 20.4795 21.1368 20.4722C18.6243 20.4649 17.2355 21.2065 14.6253 22.3042C13.1178 22.9367 11.8824 24.1363 11.1566 25.663L10.689 26.6517C10.1446 27.8003 10.5843 29.1962 11.68 29.7705C12.7688 30.3448 14.0948 29.8796 14.6462 28.7309L15.1138 27.7422C15.3581 27.2333 15.7629 26.8334 16.2654 26.6226L18.1358 25.8375L17.0749 30.2503C16.712 31.7625 17.1029 33.3692 18.1148 34.5251L22.2954 39.2797C22.7979 39.854 23.1538 40.5446 23.3353 41.2934L24.6125 46.6223C24.9126 47.8655 26.127 48.6289 27.3204 48.3162C28.5138 48.0036 29.2466 46.7387 28.9465 45.4955L27.3972 39.0252C27.2157 38.2764 26.8598 37.5785 26.3573 37.0114L23.1817 33.3982L24.3822 28.4038L24.766 29.6033C25.1359 30.7738 25.9315 31.7407 26.9784 32.2932L28.6046 33.1511C29.6933 33.7254 31.0194 33.2601 31.5707 32.1114C32.1081 30.9701 31.6684 29.5597 30.5727 28.9854V28.9854ZM14.5973 39.2142C14.374 39.8031 14.039 40.3338 13.6063 40.7773L10.1167 44.4195C9.2443 45.3283 9.2443 46.8041 10.1167 47.7128C10.9891 48.6216 12.3989 48.6216 13.2713 47.7128L17.4169 43.3945C17.8427 42.951 18.1777 42.4203 18.408 41.8314L19.3502 39.3742C15.4907 34.9904 16.6492 36.3353 16.042 35.4702L14.5973 39.2142V39.2142Z" fill="white"/>
<path d="M43.1144 48.8544L41.4084 42.0304L37.9963 36.9123V26.6761" stroke="white" stroke-width="2" stroke-linecap="round" stroke-linejoin="round"/>
<path d="M32.8784 36.9123L31.1724 31.7942L37.9965 26.6761L43.1145 30.0882L48.2326 30.9412" stroke="white" stroke-width="2" stroke-linecap="round" stroke-linejoin="round"/>
<path d="M37.9966 21.558C38.9388 21.558 39.7026 20.7942 39.7026 19.852C39.7026 18.9098 38.9388 18.146 37.9966 18.146C37.0543 18.146 36.2905 18.9098 36.2905 19.852C36.2905 20.7942 37.0543 21.558 37.9966 21.558Z" stroke="white" stroke-width="2" stroke-linecap="round" stroke-linejoin="round"/>
<path d="M36.2905 42.0303L32.8784 48.8544" stroke="white" stroke-width="2" stroke-linecap="round" stroke-linejoin="round"/>
<path d="M51.6445 48.8544V34.3532C51.6445 33.6745 51.9141 33.0236 52.3941 32.5437C52.874 32.0638 53.5249 31.7942 54.2036 31.7942C54.8823 31.7942 55.5332 32.0638 56.0131 32.5437C56.493 33.0236 56.7626 33.6745 56.7626 34.3532V35.2062" stroke="white" stroke-width="2" stroke-linecap="round" stroke-linejoin="round"/>
</svg>
