<svg width="59" height="59" viewBox="0 0 59 59" fill="none" xmlns="http://www.w3.org/2000/svg">
<path d="M59 29.5C59 45.7924 45.7924 59 29.5 59C13.2076 59 0 45.7924 0 29.5C0 13.2076 13.2076 0 29.5 0C45.7924 0 59 13.2076 59 29.5Z" fill="#028ED4"/>
<path d="M46.4805 14.2792L34.8188 25.9409C35.2984 27.2282 35.1848 28.2253 34.478 28.932C33.7713 29.6388 32.7742 29.7524 31.4869 29.2728L31.449 29.3107C32.181 30.497 32.566 31.696 32.6038 32.9076C32.6417 34.1192 32.4208 35.2172 31.9412 36.2017C31.4616 37.1861 30.7801 38.1074 29.8966 38.9657C27.6501 41.2122 26.0346 44.5189 25.0502 48.8857C23.8891 48.3051 22.6144 47.5479 21.2261 46.6139C20.9484 45.3518 20.9989 44.1024 21.3775 42.8655C21.7561 41.6287 22.4124 40.5811 23.3464 39.7229C22.1853 40.1015 21.1882 40.7326 20.3552 41.616C19.5222 42.4995 18.9543 43.5218 18.6514 44.6829C17.4146 43.6985 16.3418 42.7645 15.4331 41.8811C15.3826 41.8306 15.3132 41.7549 15.2248 41.6539C15.1365 41.5529 15.0797 41.4772 15.0544 41.4267C15.9127 40.5685 16.5185 39.5967 16.8719 38.5113C15.9884 39.2938 15.004 39.8617 13.9186 40.2151C13.1361 39.3317 12.4419 38.4861 11.8361 37.6783C12.9468 37.3249 13.9312 36.7381 14.7894 35.9177C15.6476 35.0973 16.2534 34.1192 16.6068 32.9833C15.7991 33.892 14.8146 34.542 13.6535 34.9333C12.4924 35.3245 11.306 35.4192 10.0944 35.2172C9.4129 34.1318 8.85758 33.1474 8.42847 32.264C12.7953 31.2543 16.102 29.6388 18.3485 27.4175C19.2067 26.5341 20.128 25.8525 21.1125 25.3729C22.0969 24.8933 23.1949 24.6725 24.4065 24.7103C25.6181 24.7482 26.8171 25.1331 28.0035 25.8652L28.0414 25.8273C27.5618 24.54 27.6754 23.5429 28.3821 22.8361C29.0889 22.1294 30.0859 22.0158 31.3733 22.4954L43.035 10.8336C43.5146 10.3541 44.0888 10.1143 44.7578 10.1143C45.4267 10.1143 46.0009 10.3541 46.4805 10.8336C46.9601 11.3132 47.1999 11.8875 47.1999 12.5564C47.1999 13.2253 46.9601 13.7996 46.4805 14.2792Z" fill="white"/>
</svg>
