<svg width="35" height="35" viewBox="0 0 35 35" fill="none" xmlns="http://www.w3.org/2000/svg">
<circle cx="17.5" cy="17.5" r="17.5" fill="#028ED4"/>
<g clip-path="url(#clip0_0_1)">
<path d="M12.8008 9.75C13.7945 9.75 14.6008 8.91016 14.6008 7.875C14.6008 6.83984 13.7945 6 12.8008 6C11.807 6 11.0008 6.83984 11.0008 7.875C11.0008 8.91016 11.807 9.75 12.8008 9.75ZM16.3445 15.5742L15.4708 15.1133L15.107 13.9648C14.5558 12.2227 13.0183 11.0039 11.2745 11C9.92452 10.9961 9.17827 11.3945 7.77577 11.9844C6.96577 12.3242 6.30202 12.9688 5.91202 13.7891L5.66077 14.3203C5.36827 14.9375 5.60452 15.6875 6.19327 15.9961C6.77827 16.3047 7.49077 16.0547 7.78702 15.4375L8.03827 14.9062C8.16952 14.6328 8.38702 14.418 8.65702 14.3047L9.66202 13.8828L9.09202 16.2539C8.89702 17.0664 9.10702 17.9297 9.65077 18.5508L11.897 21.1055C12.167 21.4141 12.3583 21.7852 12.4558 22.1875L13.142 25.0508C13.3033 25.7188 13.9558 26.1289 14.597 25.9609C15.2383 25.793 15.632 25.1133 15.4708 24.4453L14.6383 20.9688C14.5408 20.5664 14.3495 20.1914 14.0795 19.8867L12.3733 17.9453L13.0183 15.2617L13.2245 15.9062C13.4233 16.5352 13.8508 17.0547 14.4133 17.3516L15.287 17.8125C15.872 18.1211 16.5845 17.8711 16.8808 17.2539C17.1695 16.6406 16.9333 15.8828 16.3445 15.5742ZM7.76077 21.0703C7.64077 21.3867 7.46077 21.6719 7.22827 21.9102L5.35327 23.8672C4.88452 24.3555 4.88452 25.1484 5.35327 25.6367C5.82202 26.125 6.57952 26.125 7.04827 25.6367L9.27577 23.3164C9.50452 23.0781 9.68452 22.793 9.80827 22.4766L10.3145 21.1562C8.24077 18.8008 8.86327 19.5234 8.53702 19.0586L7.76077 21.0703Z" fill="white"/>
</g>
<path d="M23.0835 26.2499L22.1668 22.5833L20.3335 19.8333V14.3333" stroke="white" stroke-width="2" stroke-linecap="round" stroke-linejoin="round"/>
<path d="M17.5834 19.8333L16.6667 17.0833L20.3334 14.3333L23.0834 16.1666L25.8334 16.6249" stroke="white" stroke-width="2" stroke-linecap="round" stroke-linejoin="round"/>
<path d="M20.3334 11.5833C20.8397 11.5833 21.2501 11.1729 21.2501 10.6667C21.2501 10.1604 20.8397 9.75 20.3334 9.75C19.8272 9.75 19.4167 10.1604 19.4167 10.6667C19.4167 11.1729 19.8272 11.5833 20.3334 11.5833Z" stroke="white" stroke-width="2" stroke-linecap="round" stroke-linejoin="round"/>
<path d="M19.4168 22.5833L17.5835 26.2499" stroke="white" stroke-width="2" stroke-linecap="round" stroke-linejoin="round"/>
<path d="M27.6667 26.2499V18.4583C27.6667 18.0936 27.8116 17.7438 28.0695 17.486C28.3273 17.2281 28.6771 17.0833 29.0417 17.0833C29.4064 17.0833 29.7562 17.2281 30.014 17.486C30.2719 17.7438 30.4167 18.0936 30.4167 18.4583V18.9166" stroke="white" stroke-width="2" stroke-linecap="round" stroke-linejoin="round"/>
<defs>
<clipPath id="clip0_0_1">
<rect width="12" height="20" fill="white" transform="translate(5 6)"/>
</clipPath>
</defs>
</svg>
