<svg width="62" height="61" viewBox="0 0 62 61" fill="none" xmlns="http://www.w3.org/2000/svg">
<path d="M14.04 49.12C14.99 49.12 15.87 48.71 16.51 48.07L16.07 47.62C15.55 48.17 14.82 48.52 14.04 48.52C12.48 48.52 11.17 47.17 11.17 45.56C11.17 43.96 12.48 42.61 14.04 42.61C14.82 42.61 15.55 42.96 16.07 43.5L16.51 43.06C15.87 42.41 14.99 42.01 14.04 42.01C12.14 42.01 10.52 43.63 10.52 45.56C10.52 47.49 12.14 49.12 14.04 49.12ZM19.6269 43.71C19.1169 43.71 18.4769 43.85 17.7969 44.21L18.0469 44.72C18.5169 44.46 19.0569 44.26 19.5769 44.26C20.7369 44.26 21.0769 45.09 21.0769 45.85V46.06C20.5269 45.88 19.9069 45.75 19.3469 45.75C18.1869 45.75 17.2969 46.45 17.2969 47.47C17.2969 48.47 18.0969 49.12 19.1769 49.12C19.8769 49.12 20.6969 48.79 21.0769 48.18V49H21.6969V45.85C21.6969 44.6 20.9869 43.71 19.6269 43.71ZM19.2769 48.56C18.5069 48.56 17.9069 48.13 17.9069 47.44C17.9069 46.77 18.5769 46.29 19.4369 46.29C20.0169 46.29 20.5869 46.4 21.0769 46.55V47.38C20.8769 48.18 19.9969 48.56 19.2769 48.56ZM27.3007 42.01V44.84C26.9007 44.14 26.2207 43.71 25.3707 43.71C24.0407 43.71 23.0107 44.87 23.0107 46.41C23.0107 47.96 24.0407 49.12 25.3707 49.12C26.2207 49.12 26.9007 48.69 27.3007 47.99V49H27.9207V42.01H27.3007ZM25.4807 48.55C24.4407 48.55 23.6507 47.63 23.6507 46.41C23.6507 45.19 24.4407 44.28 25.4807 44.28C26.5507 44.28 27.3007 45.16 27.3007 46.41C27.3007 47.66 26.5507 48.55 25.4807 48.55ZM31.82 48.55C30.76 48.55 29.97 47.73 29.86 46.66H34.23C34.23 44.88 33.31 43.71 31.78 43.71C30.38 43.71 29.23 44.87 29.23 46.4C29.23 47.95 30.44 49.12 31.82 49.12C32.58 49.12 33.49 48.8 33.93 48.32L33.54 47.9C33.18 48.29 32.47 48.55 31.82 48.55ZM31.8 44.28C32.89 44.28 33.53 45.05 33.61 46.09H29.87C30 45.02 30.79 44.28 31.8 44.28ZM37.5273 43.71C37.0173 43.71 36.3773 43.85 35.6973 44.21L35.9473 44.72C36.4173 44.46 36.9573 44.26 37.4773 44.26C38.6373 44.26 38.9773 45.09 38.9773 45.85V46.06C38.4273 45.88 37.8073 45.75 37.2473 45.75C36.0873 45.75 35.1973 46.45 35.1973 47.47C35.1973 48.47 35.9973 49.12 37.0773 49.12C37.7773 49.12 38.5973 48.79 38.9773 48.18V49H39.5973V45.85C39.5973 44.6 38.8873 43.71 37.5273 43.71ZM37.1773 48.56C36.4073 48.56 35.8073 48.13 35.8073 47.44C35.8073 46.77 36.4773 46.29 37.3373 46.29C37.9173 46.29 38.4873 46.4 38.9773 46.55V47.38C38.7773 48.18 37.8973 48.56 37.1773 48.56ZM44.7711 43.83V47.12C44.7711 47.92 44.0611 48.55 43.1511 48.55C42.3311 48.55 41.7511 47.94 41.7511 47.07V43.83H41.1311V47.15C41.1311 48.3 41.9311 49.12 43.0711 49.12C43.8311 49.12 44.4911 48.72 44.7711 48.15V49H45.3911V43.83H44.7711ZM51.2021 49L49.2121 46.36L51.1221 43.83H50.3921L48.8421 45.88L47.2921 43.83H46.5621L48.4821 46.36L46.4821 49H47.2121L48.8421 46.84L50.4721 49H51.2021Z" fill="#7D7D7D"/>
<path d="M20.4 13.8571H45.6V31H20.4V13.8571ZM19 13.8571V8.14286H47V13.8571H19ZM33 31V8.14286V31ZM26 8.14286H33C33 8.14286 30.2 1 26 1C21.1 1 20.4 8.14286 26 8.14286ZM40.2576 8.14286H33.2576C33.2576 8.14286 35.8 1 40.2576 1C44.9 1 45.8576 8.14286 40.2576 8.14286Z" stroke="#7D7D7D" stroke-width="2"/>
</svg>
