<svg width="58" height="57" viewBox="0 0 58 57" fill="none" xmlns="http://www.w3.org/2000/svg">
<path d="M42.94 24.4841 42.8706 24.3723 42.7797 24.2753 42.6727 24.1987C42.5657 24.122 42.4446 24.0673 42.3164 24.0376C42.1882 24.0078 42.0554 24.0037 41.9256 24.0254C41.7958 24.0471 41.6716 24.0942 41.56 24.1641C40.0372 25.1121 38.3213 25.7067 36.5384 25.9042C34.7555 26.1016 32.9511 25.8968 31.2578 25.3049C29.5645 24.7129 28.0254 23.7489 26.7538 22.4837C25.4822 21.2185 24.5105 19.6844 23.91 17.9941H35.62C35.8852 17.9941 36.1396 17.8887 36.3271 17.7012C36.5146 17.5136 36.62 17.2593 36.62 16.9941C36.62 16.7288 36.5146 16.4745 36.3271 16.287C36.1396 16.0994 35.8852 15.9941 35.62 15.9941H23.39C23.1491 14.6716 23.1491 13.3165 23.39 11.9941H35.62C35.8852 11.9941 36.1396 11.8887 36.3271 11.7012C36.5146 11.5136 36.62 11.2593 36.62 10.9941C36.62 10.7288 36.5146 10.4745 36.3271 10.287C36.1396 10.0994 35.8852 9.99406 35.62 9.99406H23.91C24.5086 8.30707 25.477 6.77536 26.7443 5.51116C28.0116 4.24695 29.5457 3.28229 31.2341 2.68783C32.9226 2.09337 34.7226 1.88419 36.5024 2.0756C38.2822 2.26701 39.9966 2.85417 41.52 3.79406C41.7454 3.93463 42.0175 3.97988 42.2763 3.91987C42.5351 3.85986 42.7594 3.6995 42.9 3.47406C43.0406 3.24863 43.0858 2.97659 43.0258 2.71779C42.9658 2.45899 42.8054 2.23463 42.58 2.09406C40.7518 0.963056 38.6876 0.268281 36.5476 0.0636C34.4075 -0.141081 32.2491 0.149832 30.2396 0.913785C28.2301 1.67774 26.4236 2.89421 24.96 4.46889C23.4964 6.04356 22.4151 7.93414 21.8 9.99406H15C14.7348 9.99406 14.4804 10.0994 14.2929 10.287C14.1054 10.4745 14 10.7288 14 10.9941C14 11.2593 14.1054 11.5136 14.2929 11.7012C14.4804 11.8887 14.7348 11.9941 15 11.9941H21.37C21.2689 12.656 21.2154 13.3244 21.21 13.9941C21.2154 14.6637 21.2689 15.3321 21.37 15.9941H15C14.7348 15.9941 14.4804 16.0994 14.2929 16.287C14.1054 16.4745 14 16.7288 14 16.9941C14 17.2593 14.1054 17.5136 14.2929 17.7012C14.4804 17.8887 14.7348 17.9941 15 17.9941H21.8C22.4164 20.0588 23.5012 21.9534 24.9697 23.5303C26.4383 25.1072 28.2511 26.3239 30.2668 27.0855C32.2826 27.847 34.4469 28.1331 36.5913 27.9212C38.7357 27.7094 40.8022 27.0054 42.63 25.8641C42.741 25.7938 42.837 25.7024 42.9127 25.595C42.9883 25.4876 43.0421 25.3664 43.0709 25.2383C43.0996 25.1101 43.1029 24.9776 43.0805 24.8482C43.058 24.7187 43.0103 24.595 42.94 24.4841Z" fill="#7D7D7D"/>
<path d="M14.04 45.12C14.99 45.12 15.87 44.71 16.51 44.07L16.07 43.62C15.55 44.17 14.82 44.52 14.04 44.52C12.48 44.52 11.17 43.17 11.17 41.56C11.17 39.96 12.48 38.61 14.04 38.61C14.82 38.61 15.55 38.96 16.07 39.5L16.51 39.06C15.87 38.41 14.99 38.01 14.04 38.01C12.14 38.01 10.52 39.63 10.52 41.56C10.52 43.49 12.14 45.12 14.04 45.12ZM19.9569 45.12C21.4069 45.12 22.6269 43.88 22.6269 42.41C22.6269 40.94 21.4069 39.71 19.9569 39.71C18.5069 39.71 17.2769 40.94 17.2769 42.41C17.2769 43.88 18.5069 45.12 19.9569 45.12ZM19.9569 44.55C18.8469 44.55 17.9269 43.58 17.9269 42.41C17.9269 41.25 18.8469 40.28 19.9569 40.28C21.0569 40.28 21.9769 41.25 21.9769 42.41C21.9769 43.58 21.0569 44.55 19.9569 44.55ZM29.3655 39.71C28.5655 39.71 27.8855 40.15 27.6655 40.83C27.3955 40.15 26.7955 39.71 26.0155 39.71C25.3055 39.71 24.7355 40.05 24.4855 40.59V39.83H23.8655V45H24.4855V41.68C24.4855 40.86 25.0855 40.28 25.9355 40.28C26.6855 40.28 27.2055 40.89 27.2055 41.76V45H27.8255V41.68C27.8255 40.86 28.4255 40.28 29.2755 40.28C30.0255 40.28 30.5555 40.89 30.5555 41.76V45H31.1755V41.68C31.1755 40.53 30.4255 39.71 29.3655 39.71ZM35.3136 39.71C34.4636 39.71 33.7836 40.14 33.3836 40.84V39.83H32.7636V46.72H33.3836V43.99C33.7836 44.69 34.4636 45.12 35.3136 45.12C36.6436 45.12 37.6736 43.96 37.6736 42.41C37.6736 40.87 36.6436 39.71 35.3136 39.71ZM35.2036 44.55C34.1336 44.55 33.3836 43.66 33.3836 42.41C33.3836 41.16 34.1336 40.28 35.2036 40.28C36.2436 40.28 37.0336 41.19 37.0336 42.41C37.0336 43.63 36.2436 44.55 35.2036 44.55ZM41.2629 44.33C41.1229 44.46 40.9029 44.55 40.6629 44.55C40.3229 44.55 40.0429 44.24 40.0429 43.8V40.4H41.3429V39.83H40.0429V38.41H39.4229V39.83H38.5829V40.4H39.4229V43.8C39.4229 44.57 39.9229 45.12 40.6229 45.12C40.9629 45.12 41.3129 45 41.5829 44.79L41.2629 44.33ZM44.9548 44.55C43.8948 44.55 43.1048 43.73 42.9948 42.66H47.3648C47.3648 40.88 46.4448 39.71 44.9148 39.71C43.5148 39.71 42.3648 40.87 42.3648 42.4C42.3648 43.95 43.5748 45.12 44.9548 45.12C45.7148 45.12 46.6248 44.8 47.0648 44.32L46.6748 43.9C46.3148 44.29 45.6048 44.55 44.9548 44.55ZM44.9348 40.28C46.0248 40.28 46.6648 41.05 46.7448 42.09H43.0048C43.1348 41.02 43.9248 40.28 44.9348 40.28Z" fill="#7D7D7D"/>
</svg>
