<svg width="55" height="57" viewBox="0 0 55 57" fill="none" xmlns="http://www.w3.org/2000/svg">
<path d="M24.8102 0.828331C25.4449 0.293388 26.2483 0 27.0783 0C27.9084 0 28.7118 0.293388 29.3465 0.828331L39.9053 9.7321C40.6984 10.4016 41.1567 11.3855 41.1567 12.4226V27.7571C41.1567 28.4831 40.8683 29.1794 40.3549 29.6928C39.8415 30.2061 39.1453 30.4945 38.4192 30.4945H32.9443C32.2183 30.4945 31.522 30.2061 31.0086 29.6928C30.4953 29.1794 30.2069 28.4831 30.2069 27.7571V19.1536C30.2069 19.0499 30.1657 18.9505 30.0923 18.8771C30.019 18.8038 29.9195 18.7626 29.8158 18.7626H24.3409C24.2372 18.7626 24.1377 18.8038 24.0644 18.8771C23.991 18.9505 23.9498 19.0499 23.9498 19.1536V27.7571C23.9498 28.4831 23.6614 29.1794 23.148 29.6928C22.6347 30.2061 21.9384 30.4945 21.2124 30.4945H15.7375C15.378 30.4945 15.022 30.4237 14.6899 30.2862C14.3578 30.1486 14.056 29.9469 13.8018 29.6928C13.5476 29.4386 13.3459 29.1368 13.2084 28.8047C13.0708 28.4725 13 28.1166 13 27.7571V12.4226C13 11.3855 13.4583 10.4016 14.2514 9.7321L24.8102 0.828331ZM27.8339 2.62254C27.6224 2.4445 27.3548 2.34687 27.0783 2.34687C26.8019 2.34687 26.5343 2.4445 26.3228 2.62254L15.764 11.5247C15.6334 11.6347 15.5283 11.7719 15.4562 11.9268C15.384 12.0816 15.3466 12.2503 15.3464 12.4211V27.7555C15.3464 27.9714 15.5216 28.1466 15.7375 28.1466H21.2124C21.3161 28.1466 21.4156 28.1054 21.4889 28.032C21.5622 27.9587 21.6034 27.8592 21.6034 27.7555V19.1521C21.6034 17.6394 22.8298 16.4146 24.3409 16.4146H29.8158C31.3269 16.4146 32.5533 17.6394 32.5533 19.1521V27.7555C32.5533 27.9714 32.7285 28.1466 32.9443 28.1466H38.4192C38.523 28.1466 38.6224 28.1054 38.6958 28.032C38.7691 27.9587 38.8103 27.8592 38.8103 27.7555V12.4226C38.8101 12.2518 38.7727 12.0831 38.7005 11.9283C38.6284 11.7735 38.5233 11.6363 38.3926 11.5263L27.8339 2.62254Z" fill="#7D7D7D"/>
<path d="M16.38 45H17.08L14.05 38.13H13.35L10.32 45H11.02L11.73 43.38H15.67L16.38 45ZM12.01 42.76L13.7 38.92L15.39 42.76H12.01ZM20.5323 45.12C21.2323 45.12 21.8823 44.82 22.3623 44.34L21.9323 43.92C21.5723 44.31 21.0723 44.55 20.5323 44.55C19.4123 44.55 18.5323 43.61 18.5323 42.41C18.5323 41.22 19.4123 40.28 20.5323 40.28C21.0623 40.28 21.5523 40.51 21.9123 40.89L22.3423 40.47C21.8623 40 21.2223 39.71 20.5323 39.71C19.0623 39.71 17.8823 40.9 17.8823 42.41C17.8823 43.92 19.0623 45.12 20.5323 45.12ZM25.8839 45.12C26.5839 45.12 27.2339 44.82 27.7139 44.34L27.2839 43.92C26.9239 44.31 26.4239 44.55 25.8839 44.55C24.7639 44.55 23.8839 43.61 23.8839 42.41C23.8839 41.22 24.7639 40.28 25.8839 40.28C26.4139 40.28 26.9039 40.51 27.2639 40.89L27.6939 40.47C27.2139 40 26.5739 39.71 25.8839 39.71C24.4139 39.71 23.2339 40.9 23.2339 42.41C23.2339 43.92 24.4139 45.12 25.8839 45.12ZM32.5055 39.83V43.12C32.5055 43.92 31.7955 44.55 30.8855 44.55C30.0655 44.55 29.4855 43.94 29.4855 43.07V39.83H28.8655V43.15C28.8655 44.3 29.6655 45.12 30.8055 45.12C31.5655 45.12 32.2255 44.72 32.5055 44.15V45H33.1255V39.83H32.5055ZM36.9665 44.55C35.9065 44.55 35.1165 43.73 35.0065 42.66H39.3765C39.3765 40.88 38.4565 39.71 36.9265 39.71C35.5265 39.71 34.3765 40.87 34.3765 42.4C34.3765 43.95 35.5865 45.12 36.9665 45.12C37.7265 45.12 38.6365 44.8 39.0765 44.32L38.6865 43.9C38.3265 44.29 37.6165 44.55 36.9665 44.55ZM36.9465 40.28C38.0365 40.28 38.6765 41.05 38.7565 42.09H35.0165C35.1465 41.02 35.9365 40.28 36.9465 40.28ZM40.9038 38.82C41.1438 38.82 41.3338 38.63 41.3338 38.39C41.3338 38.16 41.1438 37.96 40.9038 37.96C40.6638 37.96 40.4738 38.16 40.4738 38.39C40.4738 38.63 40.6638 38.82 40.9038 38.82ZM40.5938 45H41.2138V39.83H40.5938V45ZM42.7229 45H43.3429V38.01H42.7229V45Z" fill="#7D7D7D"/>
</svg>
