<svg width="46" height="51" viewBox="0 0 46 51" fill="none" xmlns="http://www.w3.org/2000/svg">
<path d="M15.1667 17H33.8333C34.475 17 35 16.3625 35 15.5833C35 14.8042 34.475 14.1667 33.8333 14.1667H15.1667C14.525 14.1667 14 14.8042 14 15.5833C14 16.3625 14.525 17 15.1667 17ZM15.1667 9.91667H33.8333C34.475 9.91667 35 9.27917 35 8.5C35 7.72083 34.475 7.08333 33.8333 7.08333H15.1667C14.525 7.08333 14 7.72083 14 8.5C14 9.27917 14.525 9.91667 15.1667 9.91667ZM14 1.41667C14 2.19583 14.525 2.83333 15.1667 2.83333H33.8333C34.475 2.83333 35 2.19583 35 1.41667C35 0.6375 34.475 0 33.8333 0H15.1667C14.525 0 14 0.6375 14 1.41667Z" fill="#7D7D7D"/>
<path d="M10.94 39H11.58V33.49L14.2 38.41L16.82 33.49V39H17.46V32.13H16.82L14.2 37.05L11.58 32.13H10.94V39ZM21.4684 38.55C20.4084 38.55 19.6184 37.73 19.5084 36.66H23.8784C23.8784 34.88 22.9584 33.71 21.4284 33.71C20.0284 33.71 18.8784 34.87 18.8784 36.4C18.8784 37.95 20.0884 39.12 21.4684 39.12C22.2284 39.12 23.1384 38.8 23.5784 38.32L23.1884 37.9C22.8284 38.29 22.1184 38.55 21.4684 38.55ZM21.4484 34.28C22.5384 34.28 23.1784 35.05 23.2584 36.09H19.5184C19.6484 35.02 20.4384 34.28 21.4484 34.28ZM27.4357 33.71C26.6757 33.71 26.0157 34.11 25.7357 34.68V33.83H25.1157V39H25.7357V35.71C25.7357 34.91 26.4457 34.28 27.3557 34.28C28.1757 34.28 28.7557 34.89 28.7557 35.76V39H29.3757V35.68C29.3757 34.53 28.5757 33.71 27.4357 33.71ZM34.5367 33.83V37.12C34.5367 37.92 33.8267 38.55 32.9167 38.55C32.0967 38.55 31.5167 37.94 31.5167 37.07V33.83H30.8967V37.15C30.8967 38.3 31.6967 39.12 32.8367 39.12C33.5967 39.12 34.2567 38.72 34.5367 38.15V39H35.1567V33.83H34.5367Z" fill="#7D7D7D"/>
</svg>
