<svg width="80" height="59" viewBox="0 0 80 59" fill="none" xmlns="http://www.w3.org/2000/svg">
<path d="M39.0322 5.48736L36.8416 5.48288C31.8447 5.47092 27.5068 9.53091 27.4724 14.4486V20.112C27.4724 21.2925 27.323 22.4446 26.6789 23.4263L26.2501 24.0808C25.5971 25.073 26.2994 26.4029 27.4724 26.4029H48.4373C49.6103 26.4029 50.3111 25.073 49.6596 24.0808L49.2308 23.4263C48.5882 22.4446 48.4373 21.291 48.4373 20.1105V14.4501C48.3775 9.53091 44.0291 5.49931 39.0322 5.48736V5.48736Z" stroke="#7D7D7D" stroke-width="2" stroke-linecap="round" stroke-linejoin="round"/>
<path d="M42.4378 26.4029C42.4378 27.5919 41.9655 28.7321 41.1248 29.5728C40.2841 30.4135 39.1438 30.8858 37.9549 30.8858C36.766 30.8858 35.6257 30.4135 34.785 29.5728C33.9443 28.7321 33.472 27.5919 33.472 26.4029" stroke="#7D7D7D" stroke-width="2" stroke-linecap="round" stroke-linejoin="round"/>
<path d="M37.9549 1C38.7475 1 39.5077 1.31487 40.0681 1.87533C40.6286 2.4358 40.9435 3.19596 40.9435 3.98858V5.48287H34.9663V3.98858C34.9663 3.19596 35.2812 2.4358 35.8416 1.87533C36.4021 1.31487 37.1623 1 37.9549 1Z" stroke="#7D7D7D" stroke-width="2" stroke-linecap="round" stroke-linejoin="round"/>
<path d="M10.94 47H11.58V41.17L15.98 47H16.62V40.13H15.98V45.96L11.58 40.13H10.94V47ZM20.7186 47.12C22.1686 47.12 23.3886 45.88 23.3886 44.41C23.3886 42.94 22.1686 41.71 20.7186 41.71C19.2686 41.71 18.0386 42.94 18.0386 44.41C18.0386 45.88 19.2686 47.12 20.7186 47.12ZM20.7186 46.55C19.6086 46.55 18.6886 45.58 18.6886 44.41C18.6886 43.25 19.6086 42.28 20.7186 42.28C21.8186 42.28 22.7386 43.25 22.7386 44.41C22.7386 45.58 21.8186 46.55 20.7186 46.55ZM26.9172 46.33C26.7772 46.46 26.5572 46.55 26.3172 46.55C25.9772 46.55 25.6972 46.24 25.6972 45.8V42.4H26.9972V41.83H25.6972V40.41H25.0772V41.83H24.2372V42.4H25.0772V45.8C25.0772 46.57 25.5772 47.12 26.2772 47.12C26.6172 47.12 26.9672 47 27.2372 46.79L26.9172 46.33ZM28.5991 40.82C28.8391 40.82 29.0291 40.63 29.0291 40.39C29.0291 40.16 28.8391 39.96 28.5991 39.96C28.3591 39.96 28.1691 40.16 28.1691 40.39C28.1691 40.63 28.3591 40.82 28.5991 40.82ZM28.2891 47H28.9091V41.83H28.2891V47ZM31.4882 41.12C31.4882 40.68 31.7682 40.37 32.1082 40.37C32.3582 40.37 32.5682 40.45 32.7082 40.59L33.0282 40.13C32.7482 39.92 32.4182 39.8 32.0682 39.8C31.3682 39.8 30.8682 40.35 30.8682 41.12V41.83H30.0282V42.4H30.8682V47H31.4882V42.4H32.8182V41.83H31.4882V41.12ZM34.1948 40.82C34.4348 40.82 34.6248 40.63 34.6248 40.39C34.6248 40.16 34.4348 39.96 34.1948 39.96C33.9548 39.96 33.7648 40.16 33.7648 40.39C33.7648 40.63 33.9548 40.82 34.1948 40.82ZM33.8848 47H34.5048V41.83H33.8848V47ZM38.3839 47.12C39.0839 47.12 39.7339 46.82 40.2139 46.34L39.7839 45.92C39.4239 46.31 38.9239 46.55 38.3839 46.55C37.2639 46.55 36.3839 45.61 36.3839 44.41C36.3839 43.22 37.2639 42.28 38.3839 42.28C38.9139 42.28 39.4039 42.51 39.7639 42.89L40.1939 42.47C39.7139 42 39.0739 41.71 38.3839 41.71C36.9139 41.71 35.7339 42.9 35.7339 44.41C35.7339 45.92 36.9139 47.12 38.3839 47.12ZM43.4355 41.71C42.9255 41.71 42.2855 41.85 41.6055 42.21L41.8555 42.72C42.3255 42.46 42.8655 42.26 43.3855 42.26C44.5455 42.26 44.8855 43.09 44.8855 43.85V44.06C44.3355 43.88 43.7155 43.75 43.1555 43.75C41.9955 43.75 41.1055 44.45 41.1055 45.47C41.1055 46.47 41.9055 47.12 42.9855 47.12C43.6855 47.12 44.5055 46.79 44.8855 46.18V47H45.5055V43.85C45.5055 42.6 44.7955 41.71 43.4355 41.71ZM43.0855 46.56C42.3155 46.56 41.7155 46.13 41.7155 45.44C41.7155 44.77 42.3855 44.29 43.2455 44.29C43.8255 44.29 44.3955 44.4 44.8855 44.55V45.38C44.6855 46.18 43.8055 46.56 43.0855 46.56ZM49.3293 46.33C49.1893 46.46 48.9693 46.55 48.7293 46.55C48.3893 46.55 48.1093 46.24 48.1093 45.8V42.4H49.4093V41.83H48.1093V40.41H47.4893V41.83H46.6493V42.4H47.4893V45.8C47.4893 46.57 47.9893 47.12 48.6893 47.12C49.0293 47.12 49.3793 47 49.6493 46.79L49.3293 46.33ZM51.0112 40.82C51.2512 40.82 51.4412 40.63 51.4412 40.39C51.4412 40.16 51.2512 39.96 51.0112 39.96C50.7712 39.96 50.5812 40.16 50.5812 40.39C50.5812 40.63 50.7712 40.82 51.0112 40.82ZM50.7012 47H51.3212V41.83H50.7012V47ZM55.2303 47.12C56.6803 47.12 57.9003 45.88 57.9003 44.41C57.9003 42.94 56.6803 41.71 55.2303 41.71C53.7803 41.71 52.5503 42.94 52.5503 44.41C52.5503 45.88 53.7803 47.12 55.2303 47.12ZM55.2303 46.55C54.1203 46.55 53.2003 45.58 53.2003 44.41C53.2003 43.25 54.1203 42.28 55.2303 42.28C56.3303 42.28 57.2503 43.25 57.2503 44.41C57.2503 45.58 56.3303 46.55 55.2303 46.55ZM61.4689 41.71C60.7089 41.71 60.0489 42.11 59.7689 42.68V41.83H59.1489V47H59.7689V43.71C59.7689 42.91 60.4789 42.28 61.3889 42.28C62.2089 42.28 62.7889 42.89 62.7889 43.76V47H63.4089V43.68C63.4089 42.53 62.6089 41.71 61.4689 41.71ZM66.7599 47.12C67.7999 47.12 68.6199 46.51 68.6199 45.63C68.6199 44.73 67.8799 44.4 66.9299 44.1C65.9199 43.77 65.5199 43.56 65.5199 43.09C65.5199 42.59 66.0499 42.28 66.6799 42.28C67.1599 42.28 67.6999 42.45 68.2199 42.77L68.5299 42.29C67.9799 41.93 67.3099 41.71 66.6799 41.71C65.6799 41.71 64.8999 42.3 64.8999 43.16C64.8999 43.89 65.3899 44.28 66.6299 44.64C67.4499 44.89 67.9999 45.13 67.9999 45.69C67.9999 46.19 67.4699 46.55 66.7599 46.55C66.1799 46.55 65.5499 46.32 64.9499 45.89L64.6199 46.35C65.2299 46.84 66.0299 47.12 66.7599 47.12Z" fill="#7D7D7D"/>
</svg>
