<svg width="50" height="60" viewBox="0 0 50 60" fill="none" xmlns="http://www.w3.org/2000/svg">
<path d="M14.04 48.12C15.95 48.12 17.55 46.49 17.55 44.56C17.55 42.63 15.95 41.01 14.04 41.01C12.14 41.01 10.52 42.63 10.52 44.56C10.52 46.49 12.14 48.12 14.04 48.12ZM14.04 47.52C12.48 47.52 11.17 46.17 11.17 44.56C11.17 42.96 12.48 41.61 14.04 41.61C15.6 41.61 16.9 42.96 16.9 44.56C16.9 46.17 15.6 47.52 14.04 47.52ZM19.8964 42.12C19.8964 41.68 20.1764 41.37 20.5164 41.37C20.7664 41.37 20.9764 41.45 21.1164 41.59L21.4364 41.13C21.1564 40.92 20.8264 40.8 20.4764 40.8C19.7764 40.8 19.2764 41.35 19.2764 42.12V42.83H18.4364V43.4H19.2764V48H19.8964V43.4H21.2264V42.83H19.8964V42.12ZM23.373 42.12C23.373 41.68 23.653 41.37 23.993 41.37C24.243 41.37 24.453 41.45 24.593 41.59L24.913 41.13C24.633 40.92 24.303 40.8 23.953 40.8C23.253 40.8 22.753 41.35 22.753 42.12V42.83H21.913V43.4H22.753V48H23.373V43.4H24.703V42.83H23.373V42.12ZM26.4695 43.89V42.83H25.8495V48H26.4695V45.11C26.4695 44.04 27.2995 43.28 28.4695 43.28V42.71C27.5195 42.71 26.7595 43.19 26.4695 43.89ZM31.82 47.55C30.76 47.55 29.97 46.73 29.86 45.66H34.23C34.23 43.88 33.31 42.71 31.78 42.71C30.38 42.71 29.23 43.87 29.23 45.4C29.23 46.95 30.44 48.12 31.82 48.12C32.58 48.12 33.49 47.8 33.93 47.32L33.54 46.9C33.18 47.29 32.47 47.55 31.82 47.55ZM31.8 43.28C32.89 43.28 33.53 44.05 33.61 45.09H29.87C30 44.02 30.79 43.28 31.8 43.28ZM37.2873 48.12C38.3273 48.12 39.1473 47.51 39.1473 46.63C39.1473 45.73 38.4073 45.4 37.4573 45.1C36.4473 44.77 36.0473 44.56 36.0473 44.09C36.0473 43.59 36.5773 43.28 37.2073 43.28C37.6873 43.28 38.2273 43.45 38.7473 43.77L39.0573 43.29C38.5073 42.93 37.8373 42.71 37.2073 42.71C36.2073 42.71 35.4273 43.3 35.4273 44.16C35.4273 44.89 35.9173 45.28 37.1573 45.64C37.9773 45.89 38.5273 46.13 38.5273 46.69C38.5273 47.19 37.9973 47.55 37.2873 47.55C36.7073 47.55 36.0773 47.32 35.4773 46.89L35.1473 47.35C35.7573 47.84 36.5573 48.12 37.2873 48.12Z" fill="#7D7D7D"/>
<path d="M31 8.5C31 12.8325 28.1408 16 25 16C21.8592 16 19 12.8325 19 8.5C19 4.16747 21.8592 1 25 1C28.1408 1 31 4.16747 31 8.5Z" stroke="#7D7D7D" stroke-width="2"/>
<rect x="11" y="7" width="28" height="24" rx="5" fill="white" stroke="#7D7D7D" stroke-width="2"/>
<line x1="11" y1="17" x2="40" y2="17" stroke="#7D7D7D" stroke-width="2"/>
<line x1="19" y1="14" x2="19" y2="21" stroke="#7D7D7D" stroke-width="2" stroke-linecap="round"/>
<line x1="32" y1="14" x2="32" y2="21" stroke="#7D7D7D" stroke-width="2" stroke-linecap="round"/>
</svg>
